<?xml version="1.0" encoding="iso-8859-1"?>
<!-- Generator: Adobe Illustrator 19.0.0, SVG Export Plug-In . SVG Version: 6.00 Build 0)  -->
<svg version="1.1" id="Layer_1" xmlns="http://www.w3.org/2000/svg" xmlns:xlink="http://www.w3.org/1999/xlink" x="0px" y="0px"
	 viewBox="0 0 512 512" style="enable-background:new 0 0 512 512;" xml:space="preserve">
<path style="fill:#F4B2B0;" d="M310.482,157.605c0-5.767,0.547-11.404,1.539-16.885H13.246v43.978l196.797,165.458l138.819-116.712
	C325.59,216.305,310.482,188.725,310.482,157.605z"/>
<g>
	<path style="fill:#B3404A;" d="M349.849,249.921c16.048,9.557,34.773,15.068,54.77,15.068c59.21,0,107.382-48.172,107.382-107.383
		S463.828,50.222,404.618,50.222c-48.751,0-89.991,32.667-103.05,77.252H13.246C5.932,127.474,0,133.404,0,140.72v3.63v40.347
		v260.204v0.128v3.502c0,7.316,5.932,13.246,13.246,13.246h393.596c7.315,0,13.246-5.93,13.246-13.246v-3.629V311.78
		c0-7.316-5.932-13.246-13.246-13.246s-13.246,5.93-13.246,13.246v104.678L272.682,314.799L349.849,249.921z M404.618,76.715
		c44.603,0,80.889,36.287,80.889,80.89s-36.287,80.89-80.889,80.89c-20.637,0-39.483-7.778-53.79-20.544
		c-0.238-0.213-0.483-0.421-0.721-0.637c-0.665-0.608-1.311-1.235-1.955-1.865c-0.427-0.417-0.85-0.835-1.266-1.261
		c-0.525-0.534-1.04-1.076-1.548-1.624c-0.595-0.644-1.179-1.299-1.751-1.962c-0.327-0.376-0.658-0.747-0.978-1.129
		c-8.988-10.779-15.086-23.76-17.594-37.591c-0.008-0.045-0.016-0.089-0.024-0.134c-0.249-1.392-0.454-2.794-0.631-4.2
		c-0.028-0.225-0.06-0.448-0.086-0.673c-0.147-1.256-0.253-2.518-0.34-3.785c-0.021-0.305-0.053-0.607-0.069-0.913
		c-0.087-1.519-0.138-3.044-0.138-4.574c0-1.266,0.038-2.525,0.095-3.777c0.041-0.86,0.109-1.722,0.177-2.586
		c0.028-0.346,0.048-0.693,0.079-1.036c0.099-1.072,0.224-2.145,0.367-3.219c0.016-0.123,0.03-0.246,0.046-0.368
		c0.152-1.106,0.33-2.212,0.526-3.317C331.795,105.502,364.898,76.715,404.618,76.715z M297.235,157.605
		c0,1.787,0.046,3.569,0.135,5.345c1.073,21.781,8.672,41.87,20.87,58.365l0.001,0.003c0.748,1.012,1.527,2,2.31,2.984
		c0.36,0.456,0.709,0.919,1.077,1.368c0.383,0.466,0.784,0.914,1.174,1.374c1.812,2.142,3.686,4.236,5.669,6.236l-118.428,99.569
		L26.493,178.529v-24.561h270.806C297.256,155.184,297.235,156.396,297.235,157.605z M26.493,213.142l120.914,101.659
		L26.493,416.459V213.142z M374.821,435.285H45.268l122.724-103.179l33.528,28.19c2.464,2.072,5.493,3.108,8.525,3.108
		c3.032,0,6.06-1.036,8.525-3.108l33.528-28.19L374.821,435.285z"/>
	<path style="fill:#B3404A;" d="M368.556,193.667c2.587,2.587,5.977,3.88,9.367,3.88s6.78-1.294,9.367-3.88l17.328-17.328
		l17.328,17.328c2.587,2.587,5.977,3.88,9.367,3.88c3.39,0,6.78-1.294,9.367-3.88c5.173-5.173,5.173-13.56,0-18.733l-17.329-17.329
		l17.329-17.329c5.173-5.173,5.173-13.56,0-18.733c-5.174-5.173-13.559-5.173-18.734,0l-17.328,17.328l-17.328-17.328
		c-5.173-5.173-13.558-5.173-18.734,0c-5.173,5.173-5.173,13.56,0,18.733l17.329,17.329l-17.329,17.329
		C363.384,180.107,363.384,188.494,368.556,193.667z"/>
</g>
<g>
</g>
<g>
</g>
<g>
</g>
<g>
</g>
<g>
</g>
<g>
</g>
<g>
</g>
<g>
</g>
<g>
</g>
<g>
</g>
<g>
</g>
<g>
</g>
<g>
</g>
<g>
</g>
<g>
</g>
</svg>
